# Blender v2.81 (sub 16) OBJ File: ''
# www.blender.org
mtllib OakTree.mtl
o OakTree1_Cube.002
v -2.386358 2.912075 0.267232
v -0.406362 4.132928 1.584084
v -2.479451 3.933108 2.102923
v -4.286051 3.508858 0.415714
v -3.298409 3.339263 -1.524848
v -0.619046 3.962083 -1.917844
v -1.469457 5.694270 2.468455
v -4.095626 5.598444 1.430001
v -4.559636 5.190100 -0.593417
v -2.533621 5.665092 -2.060813
v -0.391782 6.206834 0.265860
v -2.577089 7.152005 0.315727
v -2.393820 3.246075 1.339388
v -1.211044 3.472185 1.020796
v -1.210157 3.867749 2.273189
v -0.168086 4.015844 -0.086185
v -1.412579 3.205805 -0.752237
v -3.536103 2.906432 0.317291
v -3.659487 3.704094 1.289954
v -2.912928 2.957896 -0.798239
v -4.051784 3.097950 -0.552687
v -2.151448 3.510927 -1.818100
v -0.051590 4.964987 0.994083
v -0.004207 4.955145 -1.120940
v -1.873641 4.630552 2.641036
v -0.541551 4.831395 2.304314
v -4.428109 4.539313 1.013875
v -3.432238 4.810169 1.963927
v -4.166431 3.996899 -1.219715
v -4.688749 4.245215 -0.100778
v -1.407266 4.736229 -2.414946
v -3.115808 4.510681 -2.057180
v -0.574370 6.174953 1.598274
v -2.906406 5.691414 2.135531
v -4.535233 5.544883 0.473834
v -3.757365 5.443587 -1.445685
v -0.731892 6.216736 -1.530387
v -1.821064 6.695696 1.664946
v -1.046440 7.115261 0.430705
v -3.656593 6.540462 1.057939
v -3.991626 6.331340 -0.305466
v -2.361132 6.785512 -1.115823
v -0.811871 3.659920 0.309562
v 1.616881 3.791104 1.343206
v -0.552842 4.583323 2.746286
v -2.684470 5.888410 0.589375
v -1.426128 4.880980 -2.487864
v 1.527749 3.740664 -1.819578
v 1.197626 5.825469 2.514226
v -1.338554 7.507099 2.055176
v -1.659705 7.621055 -0.733755
v 1.021264 6.319607 -2.628524
v 2.647593 5.204686 -0.225451
v 0.547214 7.853971 0.303652
v -0.726967 3.882402 1.819630
v 0.421117 3.452977 1.007075
v 0.741656 3.992659 2.340159
v 1.858553 3.506781 -0.111549
v 0.340687 3.379535 -1.009797
v -1.953000 4.405235 0.443574
v -1.828600 5.134024 1.839148
v -1.321262 3.904073 -1.508336
v -2.615915 5.455962 -0.917742
v 0.225066 4.107470 -2.617030
v 2.455645 4.316345 0.693184
v 2.512007 4.254262 -1.045704
v 0.473537 5.123776 3.087435
v 1.854684 4.640325 2.124089
v -2.234190 6.700976 1.572128
v -1.105993 6.203387 2.792397
v -1.795801 6.363846 -1.979674
v -2.629744 7.020762 -0.181754
v 1.627599 4.735909 -2.846049
v -0.120346 5.514610 -3.191441
v 2.102550 5.428279 1.298925
v -0.180232 7.096941 2.506641
v -1.681626 7.858613 0.778202
v -0.313654 7.191686 -1.872440
v 2.343762 5.833316 -1.727860
v 1.016103 6.986015 1.414787
v 1.954372 6.554979 -0.100888
v -0.331310 8.371321 1.324933
v -0.603008 8.241507 -0.151131
v 0.772877 7.460863 -0.899156
v 3.092023 4.092345 0.035848
v 4.219394 5.553264 1.202564
v 2.520794 5.215984 2.483545
v 0.372347 4.997535 0.847419
v 1.991628 5.534182 -2.362652
v 4.349046 6.199852 -1.317282
v 2.779696 7.295994 2.268621
v 0.353506 7.451586 1.988668
v -0.138802 7.409239 -0.306549
v 2.290732 7.588974 -1.547485
v 4.067156 7.584852 -0.009015
v 2.070287 8.630127 0.212226
v 2.878593 4.405709 1.521273
v 3.961425 4.730639 0.755600
v 3.443822 5.171298 2.045698
v 4.684460 5.857370 -0.080450
v 4.020828 4.955909 -0.775643
v 1.711777 4.267768 0.359459
v 1.354878 4.672923 2.070743
v 2.720785 4.489800 -1.699599
v 1.120751 5.244051 -1.384059
v 3.424584 5.812542 -1.856625
v 4.440227 6.624782 0.715751
v 4.623619 7.039372 -0.762217
v 2.623176 6.225176 2.679276
v 3.612725 6.241467 1.959314
v 0.100325 5.875650 1.750026
v 1.246491 6.108759 2.531089
v 0.813513 6.385103 -1.837289
v -0.200305 6.178202 0.028707
v 3.691231 7.048171 -1.737597
v 1.948682 6.713545 -2.054789
v 3.496043 7.471364 1.271565
v 1.671758 7.499743 2.350285
v -0.201536 7.704647 0.808716
v 0.776603 7.498345 -1.055261
v 3.738572 8.015641 -1.024501
v 2.477225 8.237288 1.435366
v 3.216643 8.284910 0.081058
v 1.093666 8.385543 1.266263
v 0.691085 8.188902 -0.037233
v 2.332705 8.482449 -0.870715
v 2.053476 2.445529 0.255531
v 3.470536 2.275152 1.094310
v 2.590832 3.371762 1.890097
v 1.664948 4.469532 0.392911
v 2.490785 3.655597 -1.829417
v 3.646814 2.405859 -0.968262
v 4.223620 4.014941 1.849367
v 3.260813 5.613362 1.452493
v 3.390130 5.679559 -0.804670
v 3.962660 4.080092 -1.540810
v 4.602623 3.193628 0.105404
v 5.067162 5.028248 0.243351
v 2.197881 2.715067 1.204571
v 2.851896 2.107880 0.754148
v 2.939063 2.687270 1.733754
v 3.623101 2.084958 0.064311
v 2.841938 2.190198 -0.421885
v 1.536231 3.325517 0.293832
v 1.749212 3.903293 1.485055
v 2.034198 2.934524 -0.843280
v 1.911027 4.076634 -1.031594
v 2.880689 2.888538 -1.369697
v 4.151619 2.569830 0.673853
v 4.228797 2.616087 -0.524077
v 3.401152 3.727879 2.190671
v 3.775058 2.998889 1.660710
v 2.152953 5.237620 1.153601
v 2.785823 4.624554 1.974273
v 2.821726 4.676273 -1.714286
v 2.464507 5.221879 -0.563608
v 3.833835 3.080916 -1.518109
v 3.203585 3.939986 -1.981712
v 4.581283 3.533937 1.080690
v 3.949226 4.871576 1.866671
v 3.298684 5.963687 0.431363
v 3.738220 4.989159 -1.373294
v 4.575444 3.508503 -0.871908
v 4.791948 4.552947 1.159682
v 4.909717 4.047421 0.169745
v 4.422367 5.562877 0.988461
v 4.270791 5.645561 -0.189860
v 4.826354 4.678066 -0.808365
v -3.584055 5.796433 0.215801
v -1.770113 5.329699 1.449819
v -2.609534 6.444110 2.257129
v -3.987440 7.832016 0.457542
v -3.243239 7.056507 -1.595804
v -1.764079 5.452922 -1.545714
v -0.929578 6.982324 2.409594
v -2.048950 8.743148 1.567591
v -2.498811 8.676785 -0.548571
v -1.113502 7.438656 -1.849046
v -0.540744 6.654867 0.321135
v -0.398494 8.386873 0.329981
v -3.190749 6.052275 1.404328
v -2.564278 5.235229 0.903915
v -2.253596 5.705822 2.162310
v -1.719391 5.198124 0.051733
v -2.747665 5.280362 -0.609224
v -4.081450 6.983978 0.323886
v -3.660249 7.229784 1.395573
v -3.686970 6.329106 -0.877183
v -3.929123 7.621819 -0.598636
v -2.698169 6.106353 -1.706467
v -1.047245 5.736629 1.031969
v -0.772181 5.948413 -0.927069
v -1.748367 6.679543 2.746614
v -1.361009 5.959298 2.259963
v -3.270910 8.338831 1.073199
v -2.468876 7.653226 2.158872
v -3.104054 7.982676 -1.276958
v -3.469501 8.379238 -0.096508
v -1.102235 6.320030 -2.310434
v -2.248165 7.181431 -2.094071
v -0.580866 6.689703 1.601306
v -1.261668 7.962059 2.237052
v -2.266516 9.047304 0.551830
v -1.921307 8.167104 -1.315022
v -0.278654 7.103380 -1.156927
v -0.428644 7.815418 1.525941
v -0.322813 7.572311 0.359804
v -0.983600 8.912226 1.203951
v -1.405292 8.782729 -0.153137
v -0.637288 8.163177 -0.699083
v -0.049034 -0.540194 0.668713
v 0.027207 0.890431 0.293526
v -0.049034 -0.540194 -0.668713
v 0.326153 0.890431 -0.592472
v 1.288392 -0.540194 0.668713
v 0.913205 0.890431 0.592472
v 1.288392 -0.540194 -0.668713
v 1.212151 0.890431 -0.293526
v -0.460641 2.214249 0.398047
v -0.067014 2.168612 -0.737056
v 1.823985 2.500082 -0.396896
v 1.812190 2.504747 0.376437
v 1.376784 1.372306 -0.281697
v 1.088247 1.372306 0.632504
v -0.027547 1.649804 0.280342
v 0.272136 1.643215 -0.647793
v 0.639928 2.243726 -0.515190
v 0.251300 2.284982 0.619295
v -0.650736 2.988897 0.354799
v -0.596590 2.916913 -0.682692
v -0.092744 2.984902 0.344708
v -0.021951 2.924192 -0.720011
v 0.810124 2.438959 -0.478362
v 0.777052 2.467687 0.364154
v 2.174220 3.740532 -0.601772
v 2.653895 3.850624 -0.401183
v 2.548139 3.836145 0.191835
v 2.035245 3.739347 0.271649
v 2.814896 5.674915 -0.572265
v 2.989049 5.655891 -0.503237
v 2.863728 5.618033 -0.057494
v 2.674447 5.634888 -0.114331
v 2.226079 4.202587 0.167776
v 2.398480 4.216505 -0.628178
v 2.729271 4.118234 -0.410763
v 2.614699 4.100794 0.136615
v 2.639874 3.751680 -0.504899
v 2.508127 3.734398 0.314380
v 2.615288 4.193583 0.224676
v 2.776785 4.219106 -0.525121
v 3.536363 4.092666 -0.195994
v 3.505711 4.078867 0.161085
v 3.485953 4.251639 0.135634
v 3.520619 4.267246 -0.188553
v 4.139318 4.605227 -0.107015
v 4.133493 4.602604 0.103050
v 4.067635 4.676878 0.090511
v 4.075984 4.680636 -0.099798
v -0.031686 4.556221 -0.010856
v 0.026226 4.526944 -0.655997
v 0.333363 4.587397 -0.030765
v 0.400905 4.566322 -0.680790
v 0.095973 3.411964 -0.757174
v 0.003999 3.455619 0.222232
v -0.481349 3.454532 0.231489
v -0.411342 3.393099 -0.723205
v -1.458830 3.565270 0.119683
v -1.458939 3.526626 -0.381072
v -1.385634 3.795413 0.064530
v -1.395465 3.756997 -0.372795
v -2.161864 4.546609 0.072548
v -2.171551 4.534671 -0.154906
v -2.072394 4.626431 0.048796
v -2.082455 4.614875 -0.148710
v -0.060532 0.175118 0.524672
v 0.095007 0.175118 -0.680211
v 1.299890 0.175118 -0.524672
v 1.144351 0.175119 0.680211
vn -0.9588 0.1928 -0.2084
vn 0.2084 0.1928 -0.9588
vn 0.9588 0.1928 0.2084
vn -0.2084 0.1928 0.9588
vn 0.0000 -1.0000 0.0000
vn 0.8870 -0.4335 0.1591
vn 0.8539 -0.5153 0.0729
vn -0.7926 -0.5551 -0.2523
vn -0.0756 0.0116 0.9971
vn 0.2112 -0.0539 -0.9760
vn 0.3088 -0.0611 -0.9492
vn -0.3081 0.0093 0.9513
vn -0.9465 -0.0822 -0.3120
vn 0.8968 -0.3318 0.2927
vn 0.9604 -0.2584 0.1043
vn -0.8928 -0.4207 -0.1612
vn 0.7781 0.6136 0.1341
vn 0.1416 0.0139 -0.9898
vn -0.1698 0.1485 0.9742
vn -0.9386 0.2634 -0.2229
vn -0.5057 0.8516 -0.1380
vn -0.7015 0.7080 -0.0817
vn 0.1268 -0.1964 -0.9723
vn -0.0382 0.0914 0.9951
vn 0.0620 0.9927 0.1038
vn 0.9651 -0.1350 0.2244
vn -0.1776 0.2322 0.9563
vn 0.2961 -0.0387 -0.9544
vn 0.2305 -0.1359 -0.9635
vn -0.1077 0.2374 0.9654
vn -0.1784 0.9839 0.0068
vn -0.9102 0.3792 -0.1663
vn 0.9574 -0.2432 0.1555
vn 0.9651 -0.1971 0.1723
vn 0.9523 -0.2692 0.1439
vn 0.9575 -0.2111 0.1968
vn 0.0844 0.0849 -0.9928
vn -0.0225 0.1836 0.9827
vn 0.2558 -0.0392 -0.9659
vn 0.2541 -0.9672 0.0077
vn 0.7558 0.6537 0.0372
vn 0.6437 -0.7650 0.0192
vn -0.5930 0.8050 -0.0193
vn -0.0275 0.1426 0.9894
vn -0.0977 0.9941 -0.0481
vn 0.0256 0.2079 0.9778
vn -0.0719 0.0857 -0.9937
vn -0.9278 0.3608 -0.0946
vn 0.3447 0.9372 -0.0523
vn -0.0642 -0.0601 -0.9961
vn 0.0187 0.2489 0.9684
vn 0.9751 -0.2037 0.0880
vn 0.7691 0.6348 -0.0741
vn -0.0787 0.2733 0.9587
vn -0.3026 0.0631 -0.9510
vn -0.5775 -0.8155 0.0384
vn -0.6679 0.7442 -0.0101
vn 0.1656 0.1608 0.9730
vn -0.1538 0.1213 -0.9806
vn -0.8115 -0.5821 0.0513
vn -0.0608 0.0855 0.9945
vn 0.9945 0.0855 0.0608
vn 0.0608 0.0855 -0.9945
vn -0.9945 0.0855 -0.0608
vn 0.2543 -0.9228 0.2893
vn 0.2544 -0.9228 0.2894
vn 0.2547 -0.9223 0.2909
vn 0.5690 -0.8106 0.1380
vn 0.0176 -0.9546 0.2975
vn 0.0030 -0.9990 -0.0444
vn 0.1655 -0.9784 -0.1239
vn 0.9436 -0.2924 0.1551
vn -0.1396 -0.5260 0.8389
vn -0.6832 -0.4348 0.5867
vn -0.6064 -0.5222 -0.5996
vn 0.0834 -0.4769 -0.8750
vn 0.9296 -0.1616 0.3312
vn -0.4087 -0.3079 0.8592
vn -0.9105 -0.2942 0.2905
vn -0.5056 -0.2904 -0.8124
vn 0.6497 0.1887 -0.7364
vn 0.3118 0.6588 0.6846
vn -0.4693 0.5049 0.7245
vn -0.8728 0.4687 -0.1359
vn -0.4396 0.6177 -0.6521
vn 0.7898 0.5957 -0.1463
vn 0.0414 0.9694 -0.2419
vn 0.2182 0.9000 -0.3774
vn 0.0291 0.6418 -0.7663
vn -0.3853 0.8783 -0.2830
vn -0.4769 0.6434 -0.5989
vn -0.7049 0.4821 -0.5202
vn -0.4983 0.8669 -0.0105
vn -0.7731 0.6273 0.0938
vn -0.7952 0.5038 0.3374
vn -0.2129 0.8831 0.4180
vn -0.2887 0.6440 0.7084
vn -0.1858 0.5744 0.7972
vn -0.0014 0.9471 0.3211
vn 0.3575 0.7927 0.4938
vn 0.8155 0.5650 0.1253
vn 0.8766 0.4526 -0.1635
vn 0.6593 0.1406 -0.7386
vn 0.1133 0.4710 -0.8748
vn -0.4701 0.2344 -0.8509
vn -0.6403 0.0615 -0.7656
vn -0.7395 0.1053 -0.6648
vn -0.9919 0.1256 -0.0191
vn -0.9745 0.0163 0.2236
vn -0.9043 0.1232 0.4088
vn -0.5133 0.1414 0.8465
vn -0.3925 0.0554 0.9181
vn -0.2197 0.2370 0.9463
vn 0.5137 0.4089 0.7543
vn 0.9081 0.2120 0.3612
vn 0.9324 0.3350 0.1358
vn -0.2172 0.1065 -0.9703
vn -0.1453 -0.3605 -0.9214
vn -0.1742 -0.3848 -0.9064
vn -0.9100 -0.0871 -0.4055
vn -0.8746 -0.3559 -0.3293
vn -0.8754 -0.4834 -0.0067
vn -0.6776 -0.0747 0.7316
vn -0.6075 -0.3186 0.7276
vn -0.4713 -0.3863 0.7929
vn 0.2348 0.0681 0.9696
vn 0.2699 -0.2176 0.9380
vn 0.6578 -0.4753 0.5844
vn 0.9612 0.2752 0.0203
vn 0.9888 -0.1474 0.0228
vn 0.8977 -0.3876 -0.2096
vn 0.2323 -0.8805 -0.4131
vn 0.1623 -0.9131 -0.3739
vn 0.0120 -0.8827 -0.4697
vn -0.1922 -0.9072 -0.3742
vn -0.1482 -0.9806 -0.1280
vn -0.6006 -0.7779 0.1848
vn -0.4961 -0.7012 0.5121
vn -0.2965 -0.7566 0.5828
vn -0.2877 -0.7278 0.6226
vn 0.5861 -0.8012 -0.1208
vn 0.5179 -0.8526 0.0692
vn 0.3777 -0.9210 0.0954
vn -0.1263 -0.7444 0.6557
vn 0.2547 -0.9222 0.2911
vn 0.4969 -0.8276 0.2611
vn -0.2481 -0.9563 0.1548
vn 0.2074 -0.9530 0.2207
vn -0.5278 -0.8355 0.1528
vn -0.5431 -0.8387 0.0396
vn -0.2875 -0.9566 -0.0479
vn 0.6450 -0.7227 0.2484
vn 0.0115 -0.5493 0.8356
vn -0.8537 -0.1353 0.5030
vn -0.7953 0.0095 -0.6061
vn 0.2097 -0.7121 -0.6700
vn 0.6933 -0.5833 0.4232
vn -0.2581 -0.1154 0.9592
vn -0.9429 0.2174 0.2523
vn -0.5260 0.1554 -0.8362
vn 0.6720 -0.5633 -0.4808
vn 0.7639 0.5027 0.4045
vn -0.0471 0.6762 0.7352
vn -0.4400 0.8861 -0.1456
vn 0.2508 0.8241 -0.5079
vn 0.8900 0.4559 0.0108
vn 0.6543 0.7465 -0.1212
vn 0.6672 0.7269 -0.1627
vn 0.5458 0.7333 -0.4055
vn 0.3884 0.8949 -0.2196
vn 0.2203 0.8488 -0.4806
vn -0.1892 0.8239 -0.5343
vn 0.3680 0.9179 -0.1485
vn -0.3484 0.9372 -0.0183
vn -0.4526 0.8212 0.3476
vn 0.6871 0.6842 0.2445
vn 0.6878 0.6837 0.2438
vn 0.6944 0.6793 0.2376
vn 0.5720 0.5931 0.5665
vn 0.5628 0.6132 0.5543
vn 0.6949 0.6789 0.2371
vn 0.7838 0.5216 0.3369
vn 0.8707 0.4240 0.2491
vn 0.9817 0.0230 -0.1889
vn 0.8811 -0.1053 -0.4610
vn 0.6113 0.3327 -0.7180
vn -0.0448 0.6144 -0.7877
vn -0.2663 0.5767 -0.7723
vn -0.3336 0.6816 -0.6513
vn -0.5758 0.8063 -0.1350
vn -0.7787 0.5624 0.2782
vn -0.7239 0.5904 0.3570
vn -0.1760 0.4606 0.8700
vn 0.0178 0.2878 0.9575
vn 0.3331 0.3661 0.8689
vn 0.8115 0.2812 0.5123
vn 0.9253 0.0937 0.3674
vn 0.9399 0.1254 0.3177
vn 0.2893 0.2381 -0.9272
vn 0.0164 -0.3744 -0.9271
vn -0.2644 -0.4194 -0.8684
vn -0.6434 0.5729 -0.5078
vn -0.8534 0.2157 -0.4746
vn -0.9987 0.0145 -0.0496
vn -0.6420 0.2874 0.7108
vn -0.7482 -0.0814 0.6585
vn -0.6287 -0.2358 0.7411
vn 0.5846 0.0577 0.8092
vn 0.4083 -0.4338 0.8032
vn 0.4938 -0.6595 0.5668
vn 0.9841 -0.1733 0.0381
vn 0.7807 -0.6231 0.0476
vn 0.5816 -0.7832 -0.2199
vn -0.0041 -0.9110 -0.4123
vn -0.1659 -0.9027 -0.3969
vn -0.3674 -0.6779 -0.6368
vn -0.7719 -0.4896 -0.4056
vn -0.7819 -0.6162 -0.0948
vn -0.8899 -0.4475 0.0879
vn -0.8411 -0.4450 0.3074
vn -0.6907 -0.6139 0.3822
vn -0.6269 -0.5602 0.5415
vn 0.1805 -0.9692 -0.1677
vn 0.0636 -0.9974 0.0338
vn -0.1891 -0.9810 0.0433
vn -0.1598 -0.7726 0.6144
vn -0.0687 -0.9189 0.3885
vn 0.1680 -0.9271 0.3349
vn 0.4336 -0.8671 0.2452
vn 0.8874 -0.4014 0.2265
vn -0.0785 -0.9777 0.1950
vn -0.1667 -0.9683 -0.1861
vn 0.5006 -0.8143 -0.2936
vn 0.9425 -0.0437 0.3313
vn 0.4102 -0.2136 0.8866
vn -0.6874 -0.6131 0.3894
vn -0.6079 -0.4291 -0.6682
vn 0.5124 -0.0279 -0.8583
vn 0.8158 0.0913 0.5710
vn -0.0901 -0.1808 0.9794
vn -0.9198 -0.3812 0.0936
vn -0.2483 0.2362 -0.9394
vn 0.7070 0.2143 -0.6739
vn 0.5654 0.6411 0.5190
vn -0.2131 0.6978 0.6838
vn -0.6248 0.7454 -0.2326
vn -0.2817 0.5877 -0.7584
vn 0.6385 0.7608 0.1161
vn 0.2812 0.9576 -0.0624
vn 0.3054 0.9483 -0.0868
vn 0.1112 0.5967 -0.7947
vn -0.2670 0.9441 -0.1934
vn -0.4048 0.7406 -0.5364
vn -0.4910 0.7012 -0.5169
vn -0.2956 0.9539 -0.0526
vn -0.4684 0.8834 0.0114
vn -0.5337 0.7398 0.4097
vn 0.0677 0.9563 0.2846
vn 0.0060 0.7759 0.6308
vn 0.1779 0.6837 0.7078
vn 0.3034 0.9320 0.1984
vn 0.5980 0.7202 0.3518
vn 0.6190 0.7085 0.3389
vn 0.7331 0.6782 0.0505
vn 0.6556 0.4270 -0.6228
vn 0.1172 0.5855 -0.8021
vn -0.2860 0.5616 -0.7764
vn -0.3065 0.5403 -0.7836
vn -0.5911 0.4504 -0.6691
vn -0.9974 0.0322 -0.0646
vn -0.9842 -0.0813 0.1576
vn -0.8956 0.0776 0.4379
vn -0.2659 0.2038 0.9422
vn -0.1193 0.1637 0.9793
vn 0.1309 0.3383 0.9319
vn 0.7127 0.3927 0.5813
vn 0.7126 0.3927 0.5813
vn 0.7128 0.3926 0.5812
vn 0.7031 0.3967 0.5901
vn 0.7314 0.5685 0.3766
vn 0.0669 0.4806 -0.8744
vn 0.1679 0.0586 -0.9841
vn 0.2783 0.2521 -0.9268
vn -0.8711 -0.0880 -0.4831
vn -0.7864 -0.3990 -0.4715
vn -0.7492 -0.5823 -0.3156
vn -0.5578 -0.0360 0.8292
vn -0.4951 -0.2989 0.8158
vn -0.1843 -0.3127 0.9318
vn 0.5716 0.2196 0.7906
vn 0.5884 -0.0276 0.8081
vn 0.7489 -0.0650 0.6595
vn 0.8271 0.5060 0.2446
vn 0.9764 0.1433 0.1614
vn 0.9495 -0.1186 -0.2903
vn 0.5831 -0.4487 -0.6772
vn 0.6215 -0.4099 -0.6676
vn 0.3690 -0.3007 -0.8794
vn -0.4366 -0.6793 -0.5899
vn -0.4548 -0.8339 -0.3128
vn -0.5344 -0.8017 -0.2678
vn -0.4414 -0.8894 0.1185
vn -0.0947 -0.9730 0.2106
vn 0.1096 -0.7399 0.6638
vn 0.8633 -0.3749 -0.3379
vn 0.8227 -0.5661 -0.0514
vn 0.6359 -0.7667 -0.0881
vn 0.2885 -0.6769 0.6772
vn 0.5363 -0.7093 0.4575
vn 0.7421 -0.4844 0.4632
vn -0.5263 -0.7935 0.3055
vn 0.1511 -0.9678 0.2011
vn -0.8257 -0.4970 0.2668
vn -0.8480 -0.4896 -0.2030
vn -0.5381 -0.7735 -0.3348
vn 0.5019 -0.8342 0.2284
vn -0.2049 -0.3158 0.9264
vn -0.9096 0.3359 0.2444
vn -0.6904 0.2982 -0.6591
vn 0.0071 -0.6327 -0.7744
vn 0.5851 -0.6380 0.5006
vn -0.3441 -0.0095 0.9389
vn -0.7642 0.6286 -0.1444
vn -0.2792 0.1966 -0.9399
vn 0.6125 -0.5943 -0.5213
vn 0.8288 -0.2115 0.5180
vn 0.3024 0.6630 0.6848
vn 0.1820 0.9612 -0.2075
vn 0.5038 0.2753 -0.8188
vn 0.9359 -0.3267 -0.1313
vn 0.9740 -0.1432 -0.1753
vn 0.9588 -0.1944 -0.2071
vn 0.6869 -0.1051 -0.7191
vn 0.6862 -0.1064 -0.7196
vn 0.6854 -0.1079 -0.7201
vn 0.6863 0.6283 -0.3663
vn 0.4879 0.6515 -0.5809
vn 0.4304 0.6932 -0.5782
vn 0.6209 0.7835 -0.0249
vn 0.3251 0.9454 0.0245
vn 0.1704 0.9301 0.3254
vn 0.8171 0.3735 0.4391
vn 0.6759 0.3567 0.6449
vn 0.6731 0.2012 0.7116
vn 0.9646 -0.1700 0.2016
vn 0.9512 -0.2139 0.2224
vn 0.9282 -0.3445 0.1405
vn 0.8984 -0.4102 -0.1571
vn 0.7175 -0.4767 -0.5080
vn 0.6870 -0.1049 -0.7190
vn 0.4465 0.2676 -0.8538
vn 0.1872 0.4197 -0.8882
vn 0.0586 0.6521 -0.7559
vn -0.4788 0.8472 -0.2302
vn -0.5817 0.8056 -0.1129
vn -0.3764 0.8805 0.2881
vn -0.0192 0.4738 0.8804
vn 0.0348 0.2569 0.9658
vn 0.3533 0.0944 0.9307
vn 0.6966 -0.4161 0.5845
vn 0.6987 -0.5191 0.4923
vn 0.8678 -0.4629 0.1805
vn 0.5122 -0.0855 -0.8546
vn -0.0354 -0.4946 -0.8684
vn 0.0182 -0.5071 -0.8617
vn -0.4854 0.7220 -0.4930
vn -0.7035 0.5324 -0.4708
vn -0.8142 0.5082 -0.2808
vn -0.3885 0.5691 0.7247
vn -0.5906 0.3583 0.7231
vn -0.4304 0.0063 0.9026
vn 0.4613 -0.3547 0.8133
vn 0.2526 -0.4808 0.8396
vn 0.3069 -0.6633 0.6825
vn 0.8233 -0.5668 0.0312
vn 0.6670 -0.7449 0.0142
vn 0.4911 -0.8350 -0.2482
vn -0.1880 -0.7870 -0.5876
vn -0.3865 -0.7349 -0.5573
vn -0.4400 -0.6155 -0.6538
vn -0.8381 -0.1755 -0.5164
vn -0.9233 -0.1573 -0.3503
vn -0.9710 0.1268 -0.2027
vn -0.9867 0.0999 0.1279
vn -0.8476 -0.4018 0.3465
vn -0.5873 -0.3893 0.7096
vn 0.0552 -0.9538 -0.2952
vn -0.0910 -0.9935 -0.0688
vn -0.3555 -0.9326 -0.0623
vn -0.5335 -0.4368 0.7243
vn -0.3829 -0.7798 0.4953
vn -0.0494 -0.8577 0.5117
vn -0.6234 -0.6961 0.3561
vn 0.0526 -0.9940 0.0955
vn -0.8469 -0.3878 0.3637
vn -0.9211 -0.3770 -0.0970
vn -0.6829 -0.6799 -0.2671
vn 0.5308 -0.8418 0.0985
vn -0.4058 -0.3062 0.8612
vn -0.7438 0.4137 0.5250
vn -0.6814 0.3277 -0.6545
vn -0.2352 -0.5357 -0.8110
vn 0.5907 -0.7539 0.2876
vn -0.5164 0.1289 0.8466
vn -0.6472 0.7501 0.1358
vn -0.4542 0.3503 -0.8192
vn 0.5806 -0.7409 -0.3376
vn 0.9014 -0.0936 0.4228
vn 0.1220 0.7139 0.6895
vn 0.0255 0.9458 -0.3238
vn 0.2867 0.7525 -0.5929
vn 0.9670 -0.2339 0.1005
vn 0.9669 0.0810 -0.2420
vn 0.9329 0.3508 -0.0813
vn 0.6670 0.4740 -0.5749
vn 0.4675 0.8351 -0.2900
vn 0.2615 0.8000 -0.5400
vn 0.0971 0.8610 -0.4993
vn 0.4471 0.8666 -0.2216
vn 0.1777 0.9729 -0.1481
vn -0.0502 0.9538 0.2963
vn 0.8296 0.4954 0.2576
vn 0.6138 0.4918 0.6176
vn 0.6446 0.3392 0.6852
vn 0.9930 0.0948 0.0703
vn 0.9853 -0.1255 0.1156
vn 0.9719 -0.2324 0.0368
vn 0.9219 -0.3846 0.0468
vn 0.8479 -0.4253 -0.3165
vn 0.6770 0.2864 -0.6779
vn 0.0314 0.6133 -0.7892
vn -0.1242 0.6403 -0.7580
vn -0.1404 0.7724 -0.6194
vn -0.3790 0.8983 -0.2225
vn -0.5303 0.8394 0.1190
vn -0.4169 0.8424 0.3415
vn -0.1877 0.5233 0.8312
vn -0.1647 0.4175 0.8936
vn 0.2842 0.2589 0.9231
vn 0.7803 -0.3995 0.4812
vn 0.7744 -0.5576 0.2990
vn 0.8878 -0.4585 0.0403
vn 0.1122 0.3799 -0.9182
vn -0.3236 -0.1981 -0.9252
vn -0.4289 -0.1421 -0.8921
vn -0.4351 0.8042 -0.4049
vn -0.6290 0.6571 -0.4155
vn -0.7929 0.5877 -0.1608
vn -0.4632 0.5538 0.6919
vn -0.5909 0.4095 0.6951
vn -0.5676 0.1321 0.8126
vn 0.4585 -0.3149 0.8310
vn 0.0602 -0.5364 0.8418
vn 0.1723 -0.8180 0.5487
vn 0.8975 -0.4338 0.0791
vn 0.6227 -0.7824 0.0028
vn 0.5147 -0.8443 -0.1491
vn -0.4076 -0.7206 -0.5609
vn -0.5721 -0.6426 -0.5096
vn -0.6523 -0.2928 -0.6991
vn -0.8330 -0.0371 -0.5520
vn -0.9608 -0.1269 -0.2464
vn -0.9894 0.1221 -0.0789
vn -0.9333 0.0474 0.3559
vn -0.8482 -0.3351 0.4102
vn -0.7261 -0.2849 0.6258
vn 0.0227 -0.9872 -0.1581
vn -0.0658 -0.9976 -0.0218
vn -0.4997 -0.8655 0.0348
vn -0.6612 -0.4003 0.6345
vn -0.5875 -0.6996 0.4067
vn -0.1518 -0.9129 0.3789
usemtl OakTreeTrunk
s 1
f 275//1 212//1 214//1 276//1
f 276//2 214//2 218//2 277//2
f 277//3 218//3 216//3 278//3
f 278//4 216//4 212//4 275//4
f 213//5 217//5 215//5 211//5
f 224//6 223//6 221//6 222//6
f 222//7 221//7 247//7 248//7
f 226//8 225//8 219//8 220//8
f 225//9 224//9 222//9 234//9 228//9 219//9
f 223//10 226//10 220//10 227//10 233//10 221//10
f 218//11 214//11 226//11 223//11
f 212//12 216//12 224//12 225//12
f 214//13 212//13 225//13 226//13
f 216//14 218//14 223//14 224//14
f 264//15 263//15 262//15 261//15
f 220//16 219//16 229//16 230//16
f 228//17 227//17 232//17 231//17
f 227//18 220//18 230//18 232//18
f 219//19 228//19 231//19 229//19
f 244//20 243//20 242//20 239//20
f 234//21 233//21 227//21 228//21
f 233//22 234//22 238//22 235//22
f 221//23 233//23 235//23 247//23
f 234//24 222//24 248//24 238//24
f 240//25 239//25 242//25 241//25
f 249//26 250//26 240//26 241//26
f 243//27 249//27 241//27 242//27
f 250//28 244//28 239//28 240//28
f 247//29 235//29 244//29 250//29
f 238//30 248//30 249//30 243//30
f 245//31 246//31 253//31 254//31
f 235//32 238//32 243//32 244//32
f 236//33 237//33 248//33 247//33
f 237//34 246//34 249//34 248//34
f 245//35 236//35 247//35 250//35
f 246//36 245//36 250//36 249//36
f 251//37 254//37 258//37 255//37
f 246//38 237//38 252//38 253//38
f 236//39 245//39 254//39 251//39
f 237//40 236//40 251//40 252//40
f 256//41 255//41 258//41 257//41
f 252//42 251//42 255//42 256//42
f 254//43 253//43 257//43 258//43
f 253//44 252//44 256//44 257//44
f 261//45 262//45 260//45 259//45
f 265//46 264//46 261//46 259//46
f 263//47 266//47 260//47 262//47
f 266//48 265//48 259//48 260//48
f 265//49 266//49 270//49 269//49
f 232//50 230//50 266//50 263//50
f 229//51 231//51 264//51 265//51
f 231//52 232//52 263//52 264//52
f 269//53 270//53 274//53 273//53
f 229//54 265//54 269//54 267//54
f 266//55 230//55 268//55 270//55
f 230//56 229//56 267//56 268//56
f 272//57 271//57 273//57 274//57
f 267//58 269//58 273//58 271//58
f 270//59 268//59 272//59 274//59
f 268//60 267//60 271//60 272//60
f 215//61 278//61 275//61 211//61
f 217//62 277//62 278//62 215//62
f 213//63 276//63 277//63 217//63
f 211//64 275//64 276//64 213//64
usemtl OakTreeLeaf
f 1//65 14//66 13//67
f 2//68 14//68 16//68
f 1//69 13//69 18//69
f 1//70 18//70 20//70
f 1//71 20//71 17//71
f 2//72 16//72 23//72
f 3//73 15//73 25//73
f 4//74 19//74 27//74
f 5//75 21//75 29//75
f 6//76 22//76 31//76
f 2//77 23//77 26//77
f 3//78 25//78 28//78
f 4//79 27//79 30//79
f 5//80 29//80 32//80
f 6//81 31//81 24//81
f 7//82 33//82 38//82
f 8//83 34//83 40//83
f 9//84 35//84 41//84
f 10//85 36//85 42//85
f 11//86 37//86 39//86
f 39//87 42//87 12//87
f 39//88 37//88 42//88
f 37//89 10//89 42//89
f 42//90 41//90 12//90
f 42//91 36//91 41//91
f 36//92 9//92 41//92
f 41//93 40//93 12//93
f 41//94 35//94 40//94
f 35//95 8//95 40//95
f 40//96 38//96 12//96
f 40//97 34//97 38//97
f 34//98 7//98 38//98
f 38//99 39//99 12//99
f 38//100 33//100 39//100
f 33//101 11//101 39//101
f 24//102 37//102 11//102
f 24//103 31//103 37//103
f 31//104 10//104 37//104
f 32//105 36//105 10//105
f 32//106 29//106 36//106
f 29//107 9//107 36//107
f 30//108 35//108 9//108
f 30//109 27//109 35//109
f 27//110 8//110 35//110
f 28//111 34//111 8//111
f 28//112 25//112 34//112
f 25//113 7//113 34//113
f 26//114 33//114 7//114
f 26//115 23//115 33//115
f 23//116 11//116 33//116
f 31//117 32//117 10//117
f 31//118 22//118 32//118
f 22//119 5//119 32//119
f 29//120 30//120 9//120
f 29//121 21//121 30//121
f 21//122 4//122 30//122
f 27//123 28//123 8//123
f 27//124 19//124 28//124
f 19//125 3//125 28//125
f 25//126 26//126 7//126
f 25//127 15//127 26//127
f 15//128 2//128 26//128
f 23//129 24//129 11//129
f 23//130 16//130 24//130
f 16//131 6//131 24//131
f 17//132 22//132 6//132
f 17//133 20//133 22//133
f 20//134 5//134 22//134
f 20//135 21//135 5//135
f 20//136 18//136 21//136
f 18//137 4//137 21//137
f 18//138 19//138 4//138
f 18//139 13//139 19//139
f 13//140 3//140 19//140
f 16//141 17//141 6//141
f 16//142 14//142 17//142
f 14//143 1//143 17//143
f 13//144 15//144 3//144
f 13//67 14//66 15//145
f 14//146 2//146 15//146
f 43//147 56//147 55//147
f 44//148 56//148 58//148
f 43//149 55//149 60//149
f 43//150 60//150 62//150
f 43//151 62//151 59//151
f 44//152 58//152 65//152
f 45//153 57//153 67//153
f 46//154 61//154 69//154
f 47//155 63//155 71//155
f 48//156 64//156 73//156
f 44//157 65//157 68//157
f 45//158 67//158 70//158
f 46//159 69//159 72//159
f 47//160 71//160 74//160
f 48//161 73//161 66//161
f 49//162 75//162 80//162
f 50//163 76//163 82//163
f 51//164 77//164 83//164
f 52//165 78//165 84//165
f 53//166 79//166 81//166
f 81//167 84//167 54//167
f 81//168 79//168 84//168
f 79//169 52//169 84//169
f 84//170 83//170 54//170
f 84//171 78//171 83//171
f 78//172 51//172 83//172
f 83//173 82//173 54//173
f 83//174 77//174 82//174
f 77//175 50//175 82//175
f 82//176 80//177 54//178
f 82//179 76//179 80//179
f 76//180 49//180 80//180
f 80//177 81//181 54//178
f 80//182 75//182 81//182
f 75//183 53//183 81//183
f 66//184 79//184 53//184
f 66//185 73//185 79//185
f 73//186 52//186 79//186
f 74//187 78//187 52//187
f 74//188 71//188 78//188
f 71//189 51//189 78//189
f 72//190 77//190 51//190
f 72//191 69//191 77//191
f 69//192 50//192 77//192
f 70//193 76//193 50//193
f 70//194 67//194 76//194
f 67//195 49//195 76//195
f 68//196 75//196 49//196
f 68//197 65//197 75//197
f 65//198 53//198 75//198
f 73//199 74//199 52//199
f 73//200 64//200 74//200
f 64//201 47//201 74//201
f 71//202 72//202 51//202
f 71//203 63//203 72//203
f 63//204 46//204 72//204
f 69//205 70//205 50//205
f 69//206 61//206 70//206
f 61//207 45//207 70//207
f 67//208 68//208 49//208
f 67//209 57//209 68//209
f 57//210 44//210 68//210
f 65//211 66//211 53//211
f 65//212 58//212 66//212
f 58//213 48//213 66//213
f 59//214 64//214 48//214
f 59//215 62//215 64//215
f 62//216 47//216 64//216
f 62//217 63//217 47//217
f 62//218 60//218 63//218
f 60//219 46//219 63//219
f 60//220 61//220 46//220
f 60//221 55//221 61//221
f 55//222 45//222 61//222
f 58//223 59//223 48//223
f 58//224 56//224 59//224
f 56//225 43//225 59//225
f 55//226 57//226 45//226
f 55//227 56//227 57//227
f 56//228 44//228 57//228
f 85//229 98//229 97//229
f 86//230 98//230 100//230
f 85//231 97//231 102//231
f 85//232 102//232 104//232
f 85//233 104//233 101//233
f 86//234 100//234 107//234
f 87//235 99//235 109//235
f 88//236 103//236 111//236
f 89//237 105//237 113//237
f 90//238 106//238 115//238
f 86//239 107//239 110//239
f 87//240 109//240 112//240
f 88//241 111//241 114//241
f 89//242 113//242 116//242
f 90//243 115//243 108//243
f 91//244 117//244 122//244
f 92//245 118//245 124//245
f 93//246 119//246 125//246
f 94//247 120//247 126//247
f 95//248 121//248 123//248
f 123//249 126//249 96//249
f 123//250 121//250 126//250
f 121//251 94//251 126//251
f 126//252 125//252 96//252
f 126//253 120//253 125//253
f 120//254 93//254 125//254
f 125//255 124//255 96//255
f 125//256 119//256 124//256
f 119//257 92//257 124//257
f 124//258 122//258 96//258
f 124//259 118//259 122//259
f 118//260 91//260 122//260
f 122//261 123//261 96//261
f 122//262 117//262 123//262
f 117//263 95//263 123//263
f 108//264 121//264 95//264
f 108//265 115//265 121//265
f 115//266 94//266 121//266
f 116//267 120//267 94//267
f 116//268 113//268 120//268
f 113//269 93//269 120//269
f 114//270 119//270 93//270
f 114//271 111//271 119//271
f 111//272 92//272 119//272
f 112//273 118//273 92//273
f 112//274 109//274 118//274
f 109//275 91//275 118//275
f 110//276 117//277 91//278
f 110//276 107//279 117//277
f 107//280 95//280 117//280
f 115//281 116//281 94//281
f 115//282 106//282 116//282
f 106//283 89//283 116//283
f 113//284 114//284 93//284
f 113//285 105//285 114//285
f 105//286 88//286 114//286
f 111//287 112//287 92//287
f 111//288 103//288 112//288
f 103//289 87//289 112//289
f 109//290 110//290 91//290
f 109//291 99//291 110//291
f 99//292 86//292 110//292
f 107//293 108//293 95//293
f 107//294 100//294 108//294
f 100//295 90//295 108//295
f 101//296 106//296 90//296
f 101//297 104//297 106//297
f 104//298 89//298 106//298
f 104//299 105//299 89//299
f 104//300 102//300 105//300
f 102//301 88//301 105//301
f 102//302 103//302 88//302
f 102//303 97//303 103//303
f 97//304 87//304 103//304
f 100//305 101//305 90//305
f 100//306 98//306 101//306
f 98//307 85//307 101//307
f 97//308 99//308 87//308
f 97//309 98//309 99//309
f 98//310 86//310 99//310
f 127//311 140//311 139//311
f 128//312 140//312 142//312
f 127//313 139//313 144//313
f 127//314 144//314 146//314
f 127//315 146//315 143//315
f 128//316 142//316 149//316
f 129//317 141//317 151//317
f 130//318 145//318 153//318
f 131//319 147//319 155//319
f 132//320 148//320 157//320
f 128//321 149//321 152//321
f 129//322 151//322 154//322
f 130//323 153//323 156//323
f 131//324 155//324 158//324
f 132//325 157//325 150//325
f 133//326 159//326 164//326
f 134//327 160//327 166//327
f 135//328 161//328 167//328
f 136//329 162//329 168//329
f 137//330 163//330 165//330
f 165//331 168//331 138//331
f 165//332 163//332 168//332
f 163//333 136//334 168//335
f 168//336 167//336 138//336
f 168//337 162//337 167//337
f 162//338 135//338 167//338
f 167//339 166//339 138//339
f 167//340 161//340 166//340
f 161//341 134//341 166//341
f 166//342 164//342 138//342
f 166//343 160//343 164//343
f 160//344 133//344 164//344
f 164//345 165//345 138//345
f 164//346 159//346 165//346
f 159//347 137//347 165//347
f 150//348 163//348 137//348
f 150//349 157//349 163//349
f 157//350 136//334 163//333
f 158//351 162//351 136//351
f 158//352 155//352 162//352
f 155//353 135//353 162//353
f 156//354 161//354 135//354
f 156//355 153//355 161//355
f 153//356 134//356 161//356
f 154//357 160//357 134//357
f 154//358 151//358 160//358
f 151//359 133//359 160//359
f 152//360 159//360 133//360
f 152//361 149//361 159//361
f 149//362 137//362 159//362
f 157//363 158//363 136//363
f 157//364 148//364 158//364
f 148//365 131//365 158//365
f 155//366 156//366 135//366
f 155//367 147//367 156//367
f 147//368 130//368 156//368
f 153//369 154//369 134//369
f 153//370 145//370 154//370
f 145//371 129//371 154//371
f 151//372 152//372 133//372
f 151//373 141//373 152//373
f 141//374 128//374 152//374
f 149//375 150//375 137//375
f 149//376 142//376 150//376
f 142//377 132//377 150//377
f 143//378 148//378 132//378
f 143//379 146//379 148//379
f 146//380 131//380 148//380
f 146//381 147//381 131//381
f 146//382 144//382 147//382
f 144//383 130//383 147//383
f 144//384 145//384 130//384
f 144//385 139//385 145//385
f 139//386 129//386 145//386
f 142//387 143//387 132//387
f 142//388 140//388 143//388
f 140//389 127//389 143//389
f 139//390 141//390 129//390
f 139//391 140//391 141//391
f 140//392 128//392 141//392
f 169//393 182//393 181//393
f 170//394 182//394 184//394
f 169//395 181//395 186//395
f 169//396 186//396 188//396
f 169//397 188//397 185//397
f 170//398 184//398 191//398
f 171//399 183//399 193//399
f 172//400 187//400 195//400
f 173//401 189//401 197//401
f 174//402 190//402 199//402
f 170//403 191//403 194//403
f 171//404 193//404 196//404
f 172//405 195//405 198//405
f 173//406 197//406 200//406
f 174//407 199//407 192//407
f 175//408 201//408 206//408
f 176//409 202//409 208//409
f 177//410 203//410 209//410
f 178//411 204//411 210//411
f 179//412 205//412 207//412
f 207//413 210//413 180//413
f 207//414 205//414 210//414
f 205//415 178//415 210//415
f 210//416 209//416 180//416
f 210//417 204//417 209//417
f 204//418 177//418 209//418
f 209//419 208//419 180//419
f 209//420 203//420 208//420
f 203//421 176//421 208//421
f 208//422 206//422 180//422
f 208//423 202//423 206//423
f 202//424 175//424 206//424
f 206//425 207//425 180//425
f 206//426 201//426 207//426
f 201//427 179//427 207//427
f 192//428 205//428 179//428
f 192//429 199//429 205//429
f 199//430 178//430 205//430
f 200//431 204//431 178//431
f 200//432 197//432 204//432
f 197//433 177//433 204//433
f 198//434 203//434 177//434
f 198//435 195//435 203//435
f 195//436 176//436 203//436
f 196//437 202//437 176//437
f 196//438 193//438 202//438
f 193//439 175//439 202//439
f 194//440 201//440 175//440
f 194//441 191//441 201//441
f 191//442 179//442 201//442
f 199//443 200//443 178//443
f 199//444 190//444 200//444
f 190//445 173//445 200//445
f 197//446 198//446 177//446
f 197//447 189//447 198//447
f 189//448 172//448 198//448
f 195//449 196//449 176//449
f 195//450 187//450 196//450
f 187//451 171//451 196//451
f 193//452 194//452 175//452
f 193//453 183//453 194//453
f 183//454 170//454 194//454
f 191//455 192//455 179//455
f 191//456 184//456 192//456
f 184//457 174//457 192//457
f 185//458 190//458 174//458
f 185//459 188//459 190//459
f 188//460 173//460 190//460
f 188//461 189//461 173//461
f 188//462 186//462 189//462
f 186//463 172//463 189//463
f 186//464 187//464 172//464
f 186//465 181//465 187//465
f 181//466 171//466 187//466
f 184//467 185//467 174//467
f 184//468 182//468 185//468
f 182//469 169//469 185//469
f 181//470 183//470 171//470
f 181//471 182//471 183//471
f 182//472 170//472 183//472
